<?xml version="1.0" encoding="UTF-8"?>
<!DOCTYPE svg PUBLIC "-//W3C//DTD SVG 1.1//EN" "http://www.w3.org/Graphics/SVG/1.1/DTD/svg11.dtd">
<svg version="1.1" xmlns="http://www.w3.org/2000/svg" xmlns:xlink="http://www.w3.org/1999/xlink" x="0" y="0" width="180" height="165" viewBox="0, 0, 180, 165">
  <g id="Layer_1">
    <path d="M148.462,130.726 L134.906,130.726 C133.862,130.726 133.01,129.877 133.01,128.831 L133.01,121.982 L146.093,121.982 C147.217,121.982 148.13,121.071 148.13,119.946 C148.13,118.821 147.217,117.91 146.093,117.91 L133.01,117.91 L133.01,111.171 C133.01,110.125 133.862,109.273 134.906,109.273 L148.462,109.273 C149.642,109.273 150.6,108.318 150.6,107.138 C150.6,105.958 149.642,105 148.462,105 L134.906,105 C131.507,105 128.738,107.768 128.738,111.171 L128.738,128.831 C128.738,132.232 131.507,135 134.906,135 L148.462,135 C149.642,135 150.6,134.044 150.6,132.864 C150.6,131.683 149.642,130.726 148.462,130.726 M108.601,117.965 C105.736,117.451 103.743,116.842 102.627,116.133 C101.511,115.424 100.952,114.466 100.952,113.259 C100.952,111.963 101.525,110.899 102.672,110.069 C103.819,109.24 105.432,108.825 107.516,108.825 C109.627,108.825 111.317,109.231 112.585,110.047 C113.266,110.485 113.888,111.069 114.448,111.797 C115.274,112.868 116.832,113.009 117.837,112.105 C118.783,111.251 118.866,109.786 118.014,108.837 C116.987,107.688 115.817,106.778 114.507,106.109 C112.561,105.114 110.215,104.616 107.471,104.616 C105.116,104.616 103.057,105.024 101.294,105.838 C99.529,106.651 98.176,107.754 97.243,109.141 C96.306,110.528 95.839,112.068 95.839,113.757 C95.839,115.357 96.207,116.715 96.949,117.83 C97.686,118.947 98.872,119.882 100.501,120.636 C102.129,121.391 104.316,122.024 107.063,122.537 C109.809,123.05 111.731,123.638 112.832,124.301 C113.934,124.966 114.485,125.84 114.485,126.925 C114.485,128.284 113.874,129.333 112.65,130.071 C111.431,130.811 109.748,131.18 107.606,131.18 C105.343,131.18 103.45,130.758 101.926,129.913 C101.056,129.43 100.277,128.79 99.586,127.993 C98.718,126.985 97.162,126.962 96.222,127.902 L96.213,127.911 C95.353,128.77 95.287,130.162 96.099,131.066 C98.681,133.949 102.533,135.388 107.65,135.388 C110.004,135.388 112.078,135.034 113.874,134.325 C115.669,133.617 117.063,132.599 118.059,131.271 C119.056,129.943 119.553,128.404 119.553,126.654 C119.553,125.025 119.191,123.661 118.467,122.559 C117.742,121.459 116.59,120.538 115.005,119.799 C113.422,119.059 111.286,118.449 108.601,117.965 M41.771,117.975 C38.905,117.459 36.913,116.852 35.796,116.143 C34.68,115.432 34.122,114.475 34.122,113.267 C34.122,111.971 34.696,110.907 35.842,110.077 C36.989,109.249 38.602,108.833 40.685,108.833 C42.795,108.833 44.485,109.24 45.753,110.055 C46.436,110.493 47.057,111.077 47.617,111.807 C48.442,112.877 50.001,113.017 51.007,112.114 C51.953,111.258 52.035,109.795 51.183,108.845 C50.156,107.697 48.985,106.788 47.676,106.117 C45.73,105.122 43.383,104.625 40.639,104.625 C38.285,104.625 36.227,105.032 34.462,105.846 C32.697,106.661 31.346,107.763 30.411,109.149 C29.476,110.538 29.009,112.076 29.009,113.766 C29.009,115.365 29.377,116.724 30.117,117.838 C30.856,118.956 32.041,119.891 33.67,120.645 C35.299,121.399 37.486,122.032 40.231,122.546 C42.977,123.059 44.9,123.647 46.002,124.311 C47.102,124.973 47.654,125.849 47.654,126.934 C47.654,128.292 47.042,129.341 45.821,130.08 C44.599,130.82 42.917,131.189 40.776,131.189 C38.512,131.189 36.619,130.767 35.096,129.921 C34.225,129.438 33.446,128.798 32.757,128.001 C31.889,126.994 30.33,126.97 29.39,127.911 L29.382,127.92 C28.522,128.778 28.457,130.171 29.267,131.075 C31.85,133.957 35.701,135.397 40.82,135.397 C43.173,135.397 45.247,135.042 47.042,134.333 C48.838,133.625 50.232,132.606 51.228,131.279 C52.225,129.953 52.722,128.412 52.722,126.662 C52.722,125.034 52.36,123.669 51.635,122.568 C50.911,121.467 49.759,120.547 48.173,119.808 C46.59,119.067 44.456,118.457 41.771,117.975 M86.342,107.06 L86.342,123.487 C86.342,127.409 85.302,130.373 83.221,132.38 C81.138,134.386 78.107,135.388 74.125,135.388 C70.142,135.388 67.109,134.386 65.028,132.38 C62.947,130.373 61.906,127.409 61.906,123.487 L61.906,107.06 C61.906,105.71 63,104.616 64.349,104.616 C65.697,104.616 66.794,105.71 66.794,107.06 L66.794,122.899 C66.794,125.735 67.389,127.824 68.581,129.166 C69.773,130.508 71.619,131.18 74.125,131.18 C76.629,131.18 78.476,130.508 79.668,129.166 C80.86,127.824 81.455,125.735 81.455,122.899 L81.455,107.06 C81.455,105.71 82.55,104.616 83.9,104.616 C85.248,104.616 86.342,105.71 86.342,107.06" fill="#FFFFFF"/>
    <path d="M144.232,47.544 C143.488,46.772 142.257,46.772 141.512,47.544 C140.674,48.38 140.773,49.823 141.813,50.513 C142.447,50.934 143.296,50.934 143.93,50.513 C144.966,49.823 145.071,48.38 144.232,47.544 M141.711,40.749 C136.385,39.501 131.597,44.287 132.846,49.614 C133.482,52.326 135.637,54.479 138.35,55.117 C143.679,56.368 148.468,51.577 147.215,46.248 C146.577,43.536 144.423,41.382 141.711,40.749 M52.762,90.188 C46.444,90.19 40.137,87.632 36.306,83.516 C31.581,78.438 28.73,73.337 29.111,63.606 C29.35,57.473 32.755,50.74 38.216,45.594 C46.096,38.166 56.643,32.789 67.918,30.453 C72.264,29.554 76.767,29.099 81.297,29.099 C83.544,29.099 85.822,29.212 88.066,29.435 C94.334,30.059 100.226,31.216 105.583,32.876 C108.49,33.78 111.28,34.844 113.876,36.035 C114.242,36.204 114.624,36.372 115.018,36.546 C117.169,37.501 119.604,38.583 121.132,40.136 L121.721,40.735 L121.72,39.895 C121.72,38.077 121.683,36.196 121.648,34.378 C121.618,32.807 121.589,31.325 121.589,30.102 C121.589,29.463 122.124,29.067 122.621,29.067 C122.769,29.067 122.91,29.1 123.045,29.165 C124.288,29.742 126.076,30.58 128.131,31.543 C132.549,33.614 138.047,36.191 142.201,38.089 C145.782,39.727 148.174,42.495 149.511,46.556 C150.679,50.09 150.911,54.08 151.061,58.197 C151.066,58.335 151.072,58.463 151.033,58.542 C151.013,58.583 150.878,58.763 149.938,58.763 C149.79,58.763 149.647,58.76 149.521,58.756 C149.413,58.752 149.319,58.749 149.24,58.749 L149.19,58.75 C148.938,58.752 148.653,58.754 148.35,58.756 C147.472,58.761 146.475,58.766 145.745,58.796 C144.997,58.83 144.253,58.847 143.461,58.847 C142.387,58.847 141.24,58.815 139.955,58.75 C136.717,58.591 133.259,57.221 130.701,55.081 C130.477,54.892 130.064,54.759 129.696,54.759 C129.361,54.759 129.083,54.865 128.89,55.067 C128.383,55.59 128.527,56.4 128.85,56.728 C130.205,58.097 131.662,58.986 133.432,59.9 C135.529,60.978 137.752,61.302 140.445,61.46 C141.448,61.518 142.454,61.548 143.435,61.548 C145.036,61.548 146.624,61.468 148.155,61.31 L148.533,61.27 C148.872,61.235 149.159,61.204 149.387,61.19 C149.187,61.36 148.887,61.593 148.492,61.887 C146.868,63.093 144.832,64.113 142.447,64.914 C139.501,65.917 136.286,66.472 132.89,66.568 C132.558,66.577 132.22,66.581 131.887,66.581 C130.272,66.581 128.63,66.474 127.006,66.264 C126.585,66.21 126.16,66.149 125.747,66.087 C125.16,65.999 124.552,65.909 123.946,65.846 C123.806,65.834 123.665,65.817 123.526,65.8 C123.105,65.753 122.673,65.702 122.236,65.702 C121.903,65.702 121.605,65.733 121.323,65.793 C120.464,65.981 119.712,66.445 119.206,67.099 C118.465,68.071 118.263,70.536 118.662,71.603 C119.448,73.726 121.209,74.913 122.796,75.859 C123.312,76.166 123.868,76.414 124.406,76.655 C125.727,77.249 126.88,77.766 127.255,78.95 C126.763,79.079 125.282,79.173 123.644,79.173 L123.444,79.173 L118.297,79.173 C118.287,79.173 118.111,79.176 117.833,79.176 C116.281,79.176 115.077,79.063 114.531,78.865 L114.514,78.857 C114.505,78.854 114.493,78.848 114.484,78.843 C114.015,78.591 113.786,77.904 113.6,77.35 L113.591,77.323 C113.33,76.545 112.884,75.726 112.146,74.67 C110.695,72.601 108.839,70.999 107.181,70.386 C104.784,69.498 103.353,69.335 101.398,69.335 C100.837,69.335 100.235,69.348 99.539,69.365 C99.013,69.377 98.44,69.389 97.802,69.399 C97.306,69.403 96.892,69.408 96.522,69.408 C95.669,69.408 95.103,69.393 94.446,69.377 C93.647,69.357 92.742,69.334 91.108,69.334 C90.582,69.334 90.191,69.899 90.064,70.846 C89.827,72.593 90.536,75.483 93.455,76.287 C93.721,76.361 93.989,76.429 94.257,76.497 C95.677,76.863 97.142,77.238 98.171,78.289 C98.504,78.632 98.602,78.932 98.562,79.027 C98.539,79.078 98.392,79.173 97.986,79.173 L87.895,79.173 C86.205,79.173 84.923,79.102 83.845,78.191 C82.038,76.665 81.154,74.615 80.219,72.446 L80.066,72.094 C78.865,69.317 77.772,67.11 76.63,65.147 C73.665,60.055 70.073,56.354 65.957,54.146 C62.708,52.407 58.666,51.409 54.868,51.409 C50.284,51.409 46.024,52.818 42.55,55.485 C39.062,58.164 37.115,62.065 37.064,66.472 C37.009,71.396 39.385,76.393 43.262,79.512 C45.725,81.494 49.004,82.587 52.49,82.587 C52.823,82.587 53.161,82.577 53.494,82.557 C57.395,82.331 60.823,80.659 62.895,77.971 C64.592,75.768 65.22,73.031 64.663,70.264 C64.192,67.933 62.811,65.897 60.974,64.817 C59.732,64.09 58.184,63.718 56.371,63.717 L56.342,63.717 C54.242,63.717 52.626,64.247 51.543,65.295 C50.026,66.764 49.781,69.365 50.993,71.096 C51.156,71.327 51.341,71.549 51.521,71.761 C52.047,72.384 52.499,72.921 52.394,73.635 C52.303,74.234 51.795,74.735 51.127,74.883 C50.96,74.919 50.791,74.94 50.619,74.94 C49.563,74.94 48.644,74.219 48.057,73.616 C45.884,71.376 45.203,67.801 46.396,64.918 C48.046,60.936 52.472,59.156 56.127,59.156 C56.254,59.156 56.378,59.157 56.506,59.16 C61.821,59.341 66.895,62.808 69.133,67.785 C71.306,72.624 70.718,78.663 67.635,83.168 C64.583,87.629 59.162,90.188 52.762,90.188 M145.373,47.929 C145.373,50.89 142.976,53.286 140.016,53.286 C137.057,53.286 134.662,50.89 134.662,47.929 C134.662,44.973 137.057,42.576 140.016,42.576 C142.976,42.576 145.373,44.973 145.373,47.929" fill="#FFFFFF"/>
  </g>
</svg>
