<?xml version="1.0" encoding="utf-8"?>
<!-- Generator: Adobe Illustrator 25.0.1, SVG Export Plug-In . SVG Version: 6.00 Build 0)  -->
<svg version="1.0" id="katman_1" xmlns="http://www.w3.org/2000/svg" xmlns:xlink="http://www.w3.org/1999/xlink" x="0px" y="0px"
	 viewBox="0 0 560 400" style="enable-background:new 0 0 560 400;" xml:space="preserve">
<style type="text/css">
	.st0{fill:#276CFF;}
	.st1{fill-rule:evenodd;clip-rule:evenodd;fill:#091C45;}
</style>
<desc>Created with Sketch.</desc>
<g id="Page-1">
	<g id="storj-logo-type-mark-color">
		<g id="Group-75-Copy">
			<g id="Group-74-Copy-2">
				
					<g id="Group-73" transform="translate(23.741478, 26.595745) rotate(-180.000000) translate(-23.741478, -26.595745) translate(0.071265, -0.000000)">
					<path id="Combined-Shape" class="st0" d="M-64.9-225.8c6,0,10.9,4.8,11.1,10.8l31.3,18.1l0.3-0.2c1.5-0.8,3.2-1.2,4.8-1.2
						l0.2,0c3.8,0,7.6,2,9.6,5.6c3,5.2,1.3,11.9-3.8,15l0,36.1l0.2,0.1c4.9,3.2,6.6,9.7,3.6,14.9c-2,3.5-5.7,5.5-9.4,5.6l-0.2,0
						c-1.8,0-3.6-0.4-5.3-1.3l-31.3,18.1l0,0.2c-0.3,5.8-5,10.5-10.9,10.6l-0.2,0c-6,0-10.9-4.8-11.1-10.8l-31.3-18.1l-0.3,0.2
						c-1.5,0.8-3.2,1.2-4.8,1.2l-0.2,0c-3.8,0-7.6-2-9.6-5.6c-3-5.2-1.3-11.9,3.8-15l0-36.1l-0.2-0.1c-4.9-3.2-6.6-9.7-3.6-14.9
						c2-3.5,5.7-5.5,9.4-5.6l0.2,0c1.8,0,3.6,0.4,5.3,1.3L-76-215l0-0.2c0.3-5.8,5-10.5,10.9-10.6L-64.9-225.8z M-64.9-109.9l-0.4,0
						c0,0-0.1,0-0.1,0l0.1,0c-0.1,0-0.3,0-0.4,0l0.3,0c-0.1,0-0.3,0-0.4,0.1l0.2,0c-0.1,0-0.3,0-0.4,0.1l0.3-0.1
						c-0.1,0-0.3,0.1-0.4,0.1l0.1,0c-0.1,0-0.2,0.1-0.4,0.1l0.2-0.1c-0.1,0-0.3,0.1-0.4,0.1l0.2-0.1c-0.3,0.1-0.5,0.2-0.7,0.3
						c-0.1,0.1-0.2,0.1-0.3,0.2c0,0-0.1,0.1-0.1,0.1l0.1-0.1c-0.1,0.1-0.2,0.1-0.3,0.2l0.2-0.1c-0.1,0.1-0.2,0.1-0.3,0.2l0.1-0.1
						c-0.1,0.1-0.2,0.1-0.3,0.2l0.2-0.1c-0.1,0.1-0.2,0.2-0.3,0.2l0.1-0.1c-0.1,0.1-0.2,0.2-0.3,0.3l0.2-0.1
						c-0.1,0.1-0.2,0.2-0.3,0.2l0.1-0.1c-0.2,0.2-0.5,0.5-0.7,0.8c0,0,0,0.1-0.1,0.1l0.1-0.1c-0.7,0.9-1,2-1,3.1
						c0,2.9,2.4,5.3,5.3,5.3c2.9,0,5.3-2.4,5.3-5.3c0-1-0.3-1.9-0.8-2.7c0-0.1-0.1-0.1-0.1-0.2l0.1,0.2c-0.1-0.1-0.1-0.2-0.2-0.3
						l0.1,0.1c-0.1-0.1-0.1-0.2-0.2-0.3l0.1,0.2c-0.2-0.3-0.4-0.5-0.6-0.8c0,0-0.1-0.1-0.1-0.1l0.1,0.1c-0.1-0.1-0.2-0.2-0.3-0.3
						l0.2,0.1c-0.1-0.1-0.2-0.2-0.3-0.2l0.1,0.1c-0.1-0.1-0.2-0.2-0.3-0.3l0.2,0.2c-0.1-0.1-0.2-0.1-0.3-0.2l0.1,0.1
						c-0.1-0.1-0.2-0.1-0.3-0.2l0.2,0.1c-0.1-0.1-0.2-0.2-0.4-0.2l0.1,0.1c-0.2-0.1-0.3-0.2-0.5-0.3c-0.1,0-0.1-0.1-0.2-0.1l0.2,0.1
						c-0.1,0-0.2-0.1-0.3-0.1l0.1,0c-0.1-0.1-0.2-0.1-0.4-0.1l0.3,0.1c-0.1-0.1-0.3-0.1-0.4-0.2l0.2,0.1c-0.1,0-0.3-0.1-0.4-0.1
						l0.2,0.1c-0.1,0-0.2-0.1-0.4-0.1l0.1,0c-0.1,0-0.3-0.1-0.4-0.1l0.3,0.1c-0.1,0-0.3-0.1-0.4-0.1l0.1,0c-0.1,0-0.3,0-0.4-0.1
						l0.3,0C-64.4-109.9-64.7-109.9-64.9-109.9z M-82.1-146.3l-19.7,11.4c0,0.1,0.1,0.3,0.1,0.4c0,0.1,0,0.1,0,0.2
						c0,0.1,0,0.2,0.1,0.3c0,0.1,0,0.2,0,0.2c0,0.1,0,0.3,0.1,0.4c0,0.1,0,0.1,0,0.2c0.1,0.6,0.1,1.1,0,1.7c0,0.1,0,0.1,0,0.2
						c0,0.1,0,0.1,0,0.2l0-0.2c0,0.2,0,0.4-0.1,0.5c0,0.1,0,0.2,0,0.3c0,0.1,0,0.1,0,0.2c0,0.1,0,0.3-0.1,0.4c0,0.1,0,0.1,0,0.2
						c0,0.1,0,0.2-0.1,0.3c0,0.1,0,0.2-0.1,0.3c0,0.1,0,0.1-0.1,0.2c0,0.1-0.1,0.2-0.1,0.3c-0.2,0.7-0.5,1.3-0.9,1.9l0,0l28.4,16.4
						c0-0.1,0.1-0.1,0.1-0.2c0-0.1,0.1-0.1,0.1-0.2c0.1-0.1,0.1-0.2,0.2-0.3c0.1-0.1,0.1-0.2,0.2-0.2c0-0.1,0.1-0.1,0.1-0.2
						c0.1-0.1,0.1-0.1,0.2-0.2c0.1-0.1,0.1-0.1,0.2-0.2c0.1-0.1,0.1-0.2,0.2-0.2c0,0,0.1-0.1,0.1-0.1c0.1-0.1,0.2-0.2,0.3-0.3
						c0,0,0.1-0.1,0.1-0.1c0.4-0.4,0.8-0.7,1.2-1c0.1,0,0.1-0.1,0.2-0.1c0.1-0.1,0.2-0.1,0.3-0.2c0.1,0,0.1-0.1,0.2-0.1
						c0.1,0,0.1-0.1,0.2-0.1c0.1-0.1,0.2-0.1,0.3-0.2c0,0,0.1-0.1,0.1-0.1c0.1,0,0.2-0.1,0.2-0.1c0.1,0,0.2-0.1,0.2-0.1
						c0.1,0,0.2-0.1,0.2-0.1c0.1,0,0.2-0.1,0.3-0.1c0,0,0.1,0,0.1-0.1c0.1-0.1,0.2-0.1,0.4-0.1c0.1,0,0.1,0,0.2-0.1
						c0.1,0,0.2-0.1,0.3-0.1c0.1,0,0.1,0,0.2-0.1c0.1,0,0.2-0.1,0.3-0.1l0-21.4C-74-137.5-79.2-141.1-82.1-146.3z M-48.7-146.7
						c-2.7,5.1-7.6,8.7-13.4,9.8l0,21.5l0.1,0c0.1,0,0.2,0.1,0.4,0.1c0.1,0,0.1,0,0.2,0c0.1,0,0.2,0.1,0.3,0.1c0.1,0,0.1,0,0.2,0.1
						c0.1,0,0.2,0.1,0.3,0.1c0.3,0.1,0.6,0.3,0.9,0.4c0.1,0,0.2,0.1,0.2,0.1c0.1,0,0.1,0.1,0.2,0.1c0.1,0,0.2,0.1,0.2,0.1
						c0.1,0.1,0.2,0.1,0.3,0.2c0,0,0.1,0.1,0.1,0.1c0.1,0.1,0.2,0.1,0.2,0.2c0.1,0.1,0.2,0.1,0.2,0.2c0.1,0,0.1,0.1,0.2,0.1
						c0.1,0.1,0.2,0.1,0.2,0.2c0.1,0.1,0.1,0.1,0.2,0.2c0.1,0.1,0.2,0.1,0.2,0.2c0,0,0.1,0.1,0.1,0.1c0.1,0.1,0.3,0.3,0.4,0.4
						l0.3,0.4c0.3,0.3,0.5,0.6,0.8,1c0.1,0.1,0.1,0.2,0.2,0.3c0.1,0.2,0.2,0.3,0.3,0.5l-0.2-0.4c0.1,0.1,0.1,0.2,0.2,0.3l0,0.1
						l28.4-16.4c0,0,0,0,0,0c-0.2-0.3-0.3-0.6-0.5-1c0-0.1-0.1-0.2-0.1-0.3c0-0.1-0.1-0.1-0.1-0.2c0-0.1-0.1-0.2-0.1-0.3
						c0,0,0-0.1,0-0.1c0-0.1-0.1-0.2-0.1-0.3c0-0.1-0.1-0.2-0.1-0.3c0,0,0-0.1,0-0.1c0-0.1-0.1-0.3-0.1-0.4c0-0.1,0-0.1,0-0.2
						c0-0.1-0.1-0.3-0.1-0.4c0-0.1,0-0.1,0-0.2c0-0.1,0-0.2,0-0.4c0-0.1,0-0.1,0-0.2c0-0.1,0-0.2,0-0.4c0-0.1,0-0.1,0-0.2
						c0-0.6,0-1.1,0-1.7c0-0.1,0-0.1,0-0.2c0-0.1,0-0.3,0.1-0.4c0-0.1,0-0.2,0.1-0.3c0-0.1,0-0.1,0-0.2c0-0.1,0-0.2,0.1-0.3
						c0-0.1,0-0.1,0-0.2l0-0.1L-48.7-146.7z M-115.2-136.7c-2.5,1.5-3.4,4.7-1.9,7.2c1.5,2.5,4.7,3.4,7.2,1.9c0.9-0.5,1.5-1.2,2-2
						c0-0.1,0.1-0.1,0.1-0.2l-0.1,0.2c0.1-0.1,0.2-0.3,0.2-0.5l-0.1,0.2c0.1-0.1,0.1-0.2,0.1-0.3l0,0.1c0.1-0.1,0.1-0.2,0.1-0.4
						l-0.1,0.3c0.1-0.1,0.1-0.3,0.2-0.4l0,0.1c0-0.1,0.1-0.2,0.1-0.3l-0.1,0.2c0-0.1,0.1-0.3,0.1-0.5l-0.1,0.3
						c0-0.1,0.1-0.3,0.1-0.4l0,0.1c0-0.1,0-0.2,0.1-0.3l0,0.2c0.1-0.3,0.1-0.7,0.1-1c0-0.1,0-0.1,0-0.2l0,0.2c0-0.1,0-0.2,0-0.4
						l0,0.2c0-0.1,0-0.3,0-0.4l0,0.2c0-0.1,0-0.3,0-0.4l0,0.2c0-0.1,0-0.3-0.1-0.4l0,0.2c0-0.1,0-0.2-0.1-0.4l0,0.2
						c0-0.1-0.1-0.3-0.1-0.4l0.1,0.2c0-0.1-0.1-0.3-0.1-0.4l0,0.1c0-0.1-0.1-0.2-0.1-0.4l0.1,0.2c0-0.1-0.1-0.3-0.1-0.4l0.1,0.2
						c-0.1-0.1-0.1-0.3-0.2-0.4l0.1,0.3c0-0.1-0.1-0.2-0.2-0.4l-0.2-0.4c-0.1-0.1-0.1-0.2-0.2-0.3c0-0.1-0.1-0.1-0.1-0.1l0.1,0.1
						c-0.1-0.1-0.2-0.2-0.3-0.3l0.2,0.2c-0.1-0.1-0.2-0.2-0.2-0.3l0.1,0.1c-0.1-0.1-0.2-0.2-0.3-0.3l0.2,0.2
						c-0.1-0.1-0.2-0.2-0.3-0.3l0.1,0.1c-0.1-0.1-0.2-0.2-0.3-0.3l0.2,0.2c-0.1-0.1-0.2-0.2-0.3-0.3l0.2,0.1
						c-0.1-0.1-0.2-0.2-0.3-0.3l0.1,0.1c-0.1-0.1-0.2-0.2-0.3-0.2l0.2,0.1c-0.1-0.1-0.2-0.1-0.3-0.2l0.1,0.1
						c-0.1-0.1-0.2-0.2-0.3-0.2l0.2,0.1c-0.1-0.1-0.2-0.1-0.3-0.2l0.1,0.1c-0.4-0.2-0.8-0.4-1.2-0.5c-0.1,0-0.1,0-0.2,0l0.2,0
						c-0.1,0-0.3-0.1-0.4-0.1l0.2,0.1c-0.1,0-0.2-0.1-0.4-0.1l0.1,0c-0.1,0-0.2,0-0.4-0.1l0.2,0c-0.1,0-0.3,0-0.4-0.1l0.2,0
						C-113-137.6-114.2-137.4-115.2-136.7z M-17.2-137.5l-0.3,0c-0.1,0-0.1,0-0.2,0l0.2,0c-0.1,0-0.3,0-0.4,0l0.2,0
						c-0.1,0-0.3,0-0.4,0l0.2,0c-0.1,0-0.3,0-0.4,0.1l0.2,0c-0.1,0-0.3,0-0.4,0.1l0.2,0c-0.1,0-0.3,0.1-0.4,0.1l0.2-0.1
						c-0.1,0-0.3,0.1-0.4,0.1l0.2,0c-0.5,0.1-0.9,0.3-1.3,0.5c0,0-0.1,0-0.1,0.1l0.1-0.1c-0.1,0.1-0.2,0.1-0.3,0.2l0.2-0.1
						c-0.1,0.1-0.2,0.1-0.3,0.2l0.1-0.1c-0.1,0.1-0.2,0.1-0.3,0.2l0.2-0.1c-0.1,0.1-0.2,0.2-0.4,0.3l0.2-0.1
						c-0.1,0.1-0.2,0.2-0.3,0.2l0.1-0.1c-0.1,0.1-0.2,0.2-0.3,0.3l0.2-0.2c-0.1,0.1-0.2,0.2-0.3,0.3l0.1-0.1
						c-0.1,0.1-0.2,0.2-0.3,0.3l0.2-0.2c-0.1,0.1-0.2,0.2-0.3,0.3l0.1-0.1c-0.1,0.1-0.1,0.2-0.2,0.3l0.1-0.2
						c-0.2,0.2-0.3,0.4-0.4,0.6l0,0.1c-0.1,0.1-0.1,0.2-0.2,0.4c0,0,0,0.1-0.1,0.1l0.1-0.1c-0.1,0.1-0.1,0.2-0.2,0.4l0.1-0.3
						c-0.1,0.1-0.1,0.3-0.2,0.4l0.1-0.2c-0.1,0.1-0.1,0.3-0.1,0.4l0.1-0.2c0,0.1-0.1,0.2-0.1,0.4l0-0.1c0,0.1-0.1,0.3-0.1,0.4
						l0.1-0.3c0,0.1-0.1,0.3-0.1,0.4l0-0.2c0,0.1,0,0.2-0.1,0.4l0-0.2c0,0.1,0,0.3-0.1,0.4l0-0.2c0,0.1,0,0.3,0,0.4l0-0.2
						c0,0.1,0,0.3,0,0.4l0-0.2c0,0.1,0,0.3,0,0.4l0-0.2c0,0.1,0,0.3,0,0.4l0-0.1c0,0.3,0,0.6,0.1,0.9c0,0.1,0,0.1,0,0.2l0-0.2
						c0,0.1,0.1,0.3,0.1,0.4l-0.1-0.2c0,0.1,0.1,0.2,0.1,0.3l0-0.1c0,0.1,0.1,0.2,0.1,0.4l-0.1-0.3c0.1,0.2,0.1,0.3,0.2,0.5
						l-0.1-0.2c0,0.1,0.1,0.3,0.2,0.4l-0.1-0.2c0.4,1,1.2,2,2.3,2.6c2.5,1.5,5.8,0.6,7.2-1.9c1.5-2.5,0.6-5.8-1.9-7.2
						C-15.4-137.2-16.3-137.4-17.2-137.5z M-25-179.2l-12.6,7.3c2.1,2.6,3.4,6,3.4,9.7c0,5.5-2.9,10.4-7.3,13.1l16.2,9.4
						c0.2-0.2,0.4-0.4,0.6-0.6c0,0,0,0,0.1-0.1c0.3-0.2,0.5-0.4,0.8-0.6c0.1,0,0.1-0.1,0.2-0.1c0.1-0.1,0.2-0.1,0.3-0.2
						c0,0,0.1-0.1,0.1-0.1c0.1-0.1,0.2-0.1,0.3-0.2c0.1,0,0.1-0.1,0.2-0.1c0.1-0.1,0.2-0.1,0.3-0.1c0.1,0,0.2-0.1,0.3-0.1
						c0.1,0,0.1-0.1,0.2-0.1c0.1,0,0.2-0.1,0.3-0.1c0.1,0,0.2-0.1,0.2-0.1c0.1,0,0.2-0.1,0.3-0.1c0.1,0,0.1-0.1,0.2-0.1
						c0.1,0,0.2-0.1,0.3-0.1c0.1,0,0.2,0,0.2-0.1c0.1,0,0.2-0.1,0.3-0.1c0.1,0,0.1,0,0.2-0.1c0.1,0,0.2-0.1,0.3-0.1
						c0.1,0,0.2,0,0.2,0c0.1,0,0.2,0,0.2,0c0.1,0,0.2,0,0.3,0c0.1,0,0.2,0,0.3,0c0.1,0,0.2,0,0.3,0c0.1,0,0.2,0,0.3,0
						c0.2,0,0.4,0,0.6,0l-0.4,0c0.1,0,0.1,0,0.2,0l0.2,0l0,0v-32.8l0,0h0c-1.2,0-2.3-0.2-3.4-0.5c-0.2-0.1-0.4-0.1-0.7-0.2
						c-0.2-0.1-0.5-0.2-0.7-0.3l-0.5-0.2C-23.4-177.9-24.3-178.5-25-179.2z M-104.9-179.2L-104.9-179.2c-0.1,0.1-0.1,0.1-0.2,0.2
						c-0.1,0.1-0.2,0.1-0.3,0.2c-0.1,0-0.1,0.1-0.2,0.1c-0.1,0.1-0.2,0.1-0.3,0.2c-0.1,0.1-0.1,0.1-0.2,0.2c-0.1,0-0.1,0.1-0.2,0.1
						c-0.1,0.1-0.2,0.1-0.3,0.2c0,0-0.1,0.1-0.1,0.1c-0.1,0.1-0.3,0.2-0.4,0.2c0,0,0,0,0,0c-0.1,0.1-0.3,0.2-0.4,0.2
						c-0.1,0-0.2,0.1-0.2,0.1c-0.1,0-0.2,0.1-0.3,0.1c-0.1,0-0.2,0.1-0.2,0.1c-0.1,0-0.2,0.1-0.3,0.1c-0.1,0-0.1,0-0.2,0.1
						c-0.1,0.1-0.3,0.1-0.4,0.1c0,0-0.1,0-0.1,0c-0.1,0-0.3,0.1-0.4,0.1c-0.1,0-0.2,0-0.3,0.1c-0.1,0-0.1,0-0.2,0.1
						c-0.1,0-0.2,0.1-0.3,0.1c-0.1,0-0.2,0-0.2,0c-0.1,0-0.2,0-0.3,0.1c-0.1,0-0.2,0-0.2,0c-0.1,0-0.2,0-0.3,0c-0.1,0-0.2,0-0.3,0
						c-0.1,0-0.2,0-0.2,0c-0.2,0-0.4,0-0.7,0l0.4,0c-0.1,0-0.1,0-0.2,0l-0.2,0l0,32.8c1.1,0,2.2,0.2,3.2,0.5
						c0.4,0.1,0.8,0.3,1.2,0.4c0.9,0.4,1.7,0.8,2.4,1.4c0.4,0.3,0.7,0.6,1.1,0.9l0,0l20.1-11.6c-6.2-0.8-11.1-5.9-11.4-12.2l0-0.6
						l0-0.2c0-3,1-5.7,2.7-7.9L-104.9-179.2z M-64.2-171.8l-18.8,0c-4,0-7.3,3.3-7.3,7.3s3.3,7.3,7.3,7.3l0,0l4,0l0.2,2.7
						c0.5,6.8,6.3,12.2,13.2,12.2c5.5,0,10.4-3.4,12.3-8.5l0,0l0.7-1.9l3,0c5.3,0,9.5-4.3,9.5-9.5c0-5.3-4.3-9.5-9.5-9.5l0,0
						l-14.3,0l0,0l-0.1,0l-0.1,0L-64.2-171.8z M-55.3-209.2L-55.3-209.2c-0.1,0.2-0.2,0.3-0.2,0.4c0,0.1-0.1,0.1-0.1,0.2
						c0,0.1-0.1,0.1-0.1,0.2c-0.1,0.1-0.1,0.1-0.2,0.2c-0.1,0.1-0.1,0.2-0.2,0.2c0,0.1-0.1,0.1-0.1,0.1c-0.1,0.1-0.2,0.2-0.2,0.3
						c0,0-0.1,0.1-0.1,0.1c-0.2,0.2-0.4,0.4-0.6,0.6c0,0-0.1,0.1-0.1,0.1l0.1-0.1c-0.4,0.4-0.9,0.8-1.3,1.1
						c-0.1,0.1-0.1,0.1-0.2,0.1c-0.1,0-0.1,0.1-0.2,0.1c-0.1,0.1-0.2,0.1-0.3,0.2c-0.1,0-0.2,0.1-0.2,0.1c-0.1,0-0.1,0.1-0.2,0.1
						c-0.1,0.1-0.2,0.1-0.3,0.2c-0.1,0-0.1,0.1-0.2,0.1c-0.1,0-0.2,0.1-0.3,0.1c-0.1,0-0.2,0.1-0.3,0.1c-0.1,0-0.2,0.1-0.2,0.1
						c-0.1,0-0.2,0.1-0.2,0.1c-0.1,0-0.2,0.1-0.3,0.1c-0.1,0-0.1,0-0.2,0.1c-0.1,0-0.2,0.1-0.3,0.1c0,0-0.1,0-0.1,0l0,26.3l12.6,0
						c2.6,0,5,0.6,7.1,1.7l14.5-8.4l0,0c0-0.1-0.1-0.2-0.1-0.3c0-0.1,0-0.2-0.1-0.2c0-0.1,0-0.2-0.1-0.3c0-0.1,0-0.2-0.1-0.3
						c0,0,0-0.1,0-0.1c0-0.2,0-0.3-0.1-0.5c0,0,0,0,0-0.1c-0.1-0.6-0.1-1.1,0-1.7c0-0.1,0-0.1,0-0.2c0-0.1,0-0.2,0-0.4
						c0-0.1,0-0.1,0-0.2c0-0.1,0-0.2,0.1-0.4c0-0.1,0-0.1,0-0.2c0-0.1,0-0.2,0.1-0.4c0-0.1,0-0.1,0-0.2c0-0.1,0.1-0.2,0.1-0.4
						c0-0.1,0-0.1,0-0.2c0-0.1,0.1-0.2,0.1-0.3c0-0.1,0.1-0.2,0.1-0.2c0-0.1,0.1-0.2,0.1-0.3c0-0.1,0.1-0.1,0.1-0.2c0,0,0,0,0,0l0,0
						c0.2-0.5,0.4-1,0.7-1.5l-0.2,0.3c0.1-0.1,0.1-0.2,0.2-0.3l0,0L-55.3-209.2L-55.3-209.2z M-74.6-209.2l-28.4,16.4c0,0,0,0,0,0
						c0.3,0.5,0.5,1,0.7,1.5c0,0.1,0,0.1,0.1,0.2c0,0.1,0.1,0.2,0.1,0.3c0,0.1,0.1,0.2,0.1,0.4c0,0.1,0,0.1,0,0.2
						c0,0.1,0.1,0.2,0.1,0.3c0,0.1,0,0.1,0.1,0.2c0,0.1,0,0.2,0.1,0.2c0,0.1,0,0.2,0.1,0.4c0,0.1,0,0.1,0,0.2c0,0.1,0,0.1,0,0.2
						c0,0.1,0,0.2,0,0.3l0,0.1c0,0.1,0,0.1,0,0.2c0,0.1,0,0.2,0,0.3c0,0.6,0,1.1,0,1.7c0,0,0,0,0,0.1c0,0.2,0,0.3-0.1,0.5
						c0,0,0,0.1,0,0.1c0,0.1,0,0.3-0.1,0.4c0,0.1,0,0.1,0,0.2c0,0.1,0,0.2-0.1,0.3c0,0.1-0.1,0.2-0.1,0.3c0,0,0,0.1,0,0.1l0,0
						l13.4,7.7c1.5-0.7,3.2-1.1,5-1.2l0.5,0l15.1,0l0-26.4c-0.1,0-0.1,0-0.2-0.1c-0.1,0-0.2-0.1-0.3-0.1c-0.1,0-0.1,0-0.2-0.1
						c-0.1,0-0.2-0.1-0.3-0.1c-0.5-0.2-0.9-0.4-1.4-0.6c-0.1,0-0.2-0.1-0.3-0.2c-0.1,0-0.1-0.1-0.2-0.1c-0.1,0-0.1-0.1-0.2-0.1
						c-0.1-0.1-0.2-0.1-0.3-0.2c0,0-0.1-0.1-0.1-0.1c-0.1-0.1-0.2-0.1-0.3-0.2c-0.1,0-0.1-0.1-0.2-0.1c-0.1-0.1-0.2-0.1-0.2-0.2
						c-0.1-0.1-0.1-0.1-0.2-0.2c-0.1-0.1-0.2-0.2-0.3-0.3c0,0,0,0-0.1-0.1c-0.1-0.1-0.2-0.2-0.3-0.3c-0.3-0.3-0.6-0.7-0.9-1
						c-0.2-0.2-0.3-0.5-0.5-0.7C-74.3-208.8-74.4-209-74.6-209.2l0.2,0.4C-74.4-208.9-74.5-209-74.6-209.2L-74.6-209.2z
						 M-19.9-191.8c-0.9,0.5-1.5,1.2-2,2c0,0.1-0.1,0.2-0.1,0.2l0.1-0.2c-0.1,0.1-0.1,0.2-0.2,0.4l0.1-0.1c-0.1,0.1-0.1,0.2-0.1,0.3
						l0.1-0.2c-0.1,0.1-0.1,0.3-0.2,0.4l0.1-0.2c0,0.1-0.1,0.2-0.1,0.4l0.1-0.2c0,0.1-0.1,0.2-0.1,0.4l0.1-0.2
						c0,0.1-0.1,0.3-0.1,0.4l0-0.2c0,0.1-0.1,0.2-0.1,0.4l0-0.2c-0.1,0.3-0.1,0.7-0.1,1c0,0,0,0.1,0,0.1l0-0.1c0,0.1,0,0.3,0,0.4
						l0-0.3c0,0.1,0,0.3,0,0.4l0-0.2c0,0.1,0,0.3,0,0.4l0-0.2c0,0.1,0,0.3,0,0.4l0-0.2c0,0.1,0,0.3,0.1,0.4l0-0.2
						c0,0.1,0,0.2,0.1,0.4l0-0.2c0,0.1,0.1,0.3,0.1,0.4l-0.1-0.3c0,0.1,0.1,0.3,0.1,0.4l0-0.1c0,0.1,0.1,0.2,0.1,0.4l-0.1-0.2
						c0,0.1,0.1,0.3,0.1,0.4l-0.1-0.2c0.1,0.3,0.2,0.6,0.4,0.9l-0.1-0.1c0,0,0,0.1,0.1,0.1c0.1,0.2,0.2,0.3,0.3,0.5
						c0.1,0.1,0.1,0.1,0.2,0.2l-0.2-0.2c0.1,0.1,0.2,0.2,0.2,0.3l-0.1-0.1c0.1,0.1,0.2,0.2,0.3,0.3l-0.2-0.2
						c0.1,0.1,0.2,0.2,0.3,0.3l-0.1-0.1c0.1,0.1,0.2,0.2,0.3,0.3l-0.2-0.2c0.1,0.1,0.2,0.2,0.3,0.3l-0.1-0.1
						c0.1,0.1,0.2,0.2,0.3,0.2l-0.2-0.1c0.1,0.1,0.2,0.2,0.4,0.3l-0.2-0.1c0.1,0.1,0.2,0.1,0.3,0.2l-0.1-0.1
						c0.1,0.1,0.2,0.1,0.3,0.2l-0.2-0.1c0.1,0.1,0.2,0.1,0.3,0.2l-0.1-0.1c0.1,0.1,0.2,0.1,0.3,0.2l-0.2-0.1
						c0.2,0.1,0.3,0.2,0.5,0.2l-0.3-0.1c0.2,0.1,0.4,0.2,0.6,0.3c0,0,0.1,0,0.1,0l-0.1,0c0.1,0,0.2,0.1,0.3,0.1l-0.2-0.1
						c0.1,0,0.3,0.1,0.4,0.1l-0.2-0.1c0.1,0,0.2,0.1,0.3,0.1l-0.2,0c0.1,0,0.3,0.1,0.4,0.1l-0.3-0.1c0.1,0,0.3,0.1,0.4,0.1l-0.1,0
						c0.1,0,0.3,0,0.4,0.1l-0.3,0c1.1,0.2,2.3,0,3.4-0.7c2.5-1.5,3.4-4.7,1.9-7.2C-14.1-192.4-17.4-193.2-19.9-191.8z M-117.2-189.8
						c-1.5,2.5-0.6,5.8,1.9,7.2c0.9,0.5,1.8,0.7,2.7,0.7c0.1,0,0.2,0,0.3,0l-0.3,0c0.1,0,0.3,0,0.4,0l-0.2,0c0.1,0,0.3,0,0.4,0
						l-0.3,0c0.1,0,0.3,0,0.4-0.1l-0.1,0c0.1,0,0.3,0,0.4-0.1l-0.2,0c0.1,0,0.3-0.1,0.4-0.1l-0.2,0c0.1,0,0.2-0.1,0.3-0.1l-0.1,0
						c0.3-0.1,0.6-0.2,0.8-0.3c0.1,0,0.2-0.1,0.3-0.1l-0.3,0.1c0.2-0.1,0.3-0.2,0.5-0.2l-0.2,0.1c0.1-0.1,0.2-0.1,0.3-0.2l-0.1,0.1
						c0.1-0.1,0.2-0.1,0.3-0.2l-0.2,0.1c0.1-0.1,0.2-0.2,0.4-0.2l-0.1,0.1c0.1-0.1,0.2-0.2,0.3-0.3l-0.2,0.2
						c0.1-0.1,0.2-0.2,0.3-0.2l-0.1,0.1c0.1-0.1,0.2-0.2,0.3-0.2l-0.2,0.1c0.1-0.1,0.2-0.2,0.3-0.3l-0.2,0.1
						c0.1-0.1,0.2-0.2,0.3-0.3l-0.1,0.1c0.1-0.1,0.2-0.2,0.3-0.3l-0.2,0.2c0.1-0.1,0.2-0.2,0.3-0.3l-0.1,0.1
						c0.2-0.2,0.4-0.5,0.6-0.8c0.1-0.2,0.3-0.5,0.4-0.7c0-0.1,0-0.1,0.1-0.2l-0.1,0.2c0.1-0.1,0.1-0.3,0.1-0.4l-0.1,0.2
						c0-0.1,0.1-0.2,0.1-0.4l0,0.1c0-0.1,0.1-0.3,0.1-0.4l-0.1,0.3c0-0.1,0.1-0.3,0.1-0.4l0,0.2c0-0.1,0-0.2,0.1-0.4l0,0.2
						c0-0.1,0-0.3,0.1-0.4l0,0.2c0-0.1,0-0.3,0-0.4l0,0.2c0-0.1,0-0.3,0-0.4l0,0.2c0-0.1,0-0.3,0-0.4l0,0.2c0-0.3,0-0.7-0.1-1
						c0-0.1,0-0.1,0-0.2l0,0.2c0-0.1,0-0.2-0.1-0.3l0,0.1c0-0.1-0.1-0.2-0.1-0.4l0.1,0.2c0-0.2-0.1-0.3-0.1-0.5l0.1,0.2
						c0-0.1-0.1-0.2-0.1-0.4l0,0.1c0-0.1-0.1-0.3-0.1-0.4l0.1,0.3c0-0.1-0.1-0.2-0.1-0.4l0,0.1c-0.4-1-1.2-2-2.2-2.6
						C-112.5-193.2-115.7-192.4-117.2-189.8z M-64.9-220c-2.9,0-5.3,2.4-5.3,5.3c0,1,0.3,1.9,0.7,2.7c0,0.1,0.1,0.1,0.1,0.2
						l-0.1-0.2c0.2,0.4,0.5,0.8,0.9,1.1c0,0,0.1,0.1,0.1,0.1l-0.1-0.1c0.1,0.1,0.1,0.1,0.2,0.2l-0.1-0.1c0.1,0.1,0.2,0.2,0.3,0.3
						l-0.2-0.2c0.1,0.1,0.2,0.2,0.3,0.2l-0.1-0.1c0.1,0.1,0.2,0.1,0.3,0.2l-0.2-0.2c0.1,0.1,0.2,0.2,0.3,0.2l-0.1-0.1
						c0.1,0.1,0.2,0.2,0.4,0.2l-0.3-0.1c0.1,0.1,0.2,0.1,0.3,0.2l-0.1,0c0.1,0.1,0.3,0.1,0.4,0.2l-0.3-0.2c0.2,0.1,0.3,0.2,0.5,0.2
						l-0.1-0.1c0.1,0.1,0.2,0.1,0.4,0.1l-0.2-0.1c0.1,0.1,0.3,0.1,0.4,0.1l-0.2-0.1c0.1,0,0.3,0.1,0.4,0.1l-0.2-0.1
						c0.1,0,0.3,0.1,0.4,0.1l-0.2,0c0.1,0,0.2,0.1,0.4,0.1l-0.2,0c0.1,0,0.3,0.1,0.4,0.1l-0.2,0c0.2,0,0.3,0.1,0.5,0.1l-0.3,0
						c0.3,0,0.5,0.1,0.8,0.1l0.4,0c0,0,0.1,0,0.1,0l-0.1,0c0.1,0,0.3,0,0.4,0l-0.3,0c0.2,0,0.3,0,0.5-0.1l-0.2,0
						c0.1,0,0.3,0,0.4-0.1l-0.2,0c0.1,0,0.3-0.1,0.4-0.1l-0.2,0c0.1,0,0.3-0.1,0.4-0.1l-0.2,0.1c0.1,0,0.3-0.1,0.4-0.1l-0.2,0.1
						c0.1,0,0.2-0.1,0.4-0.1l-0.2,0.1c0.3-0.1,0.5-0.2,0.8-0.4c0.1,0,0.2-0.1,0.3-0.1l-0.3,0.1c0.1-0.1,0.3-0.2,0.4-0.2l-0.1,0.1
						c0.1-0.1,0.2-0.1,0.3-0.2l-0.2,0.1c0.1-0.1,0.2-0.2,0.3-0.2l-0.1,0.1c0.1-0.1,0.2-0.2,0.3-0.3l-0.2,0.1
						c0.1-0.1,0.2-0.2,0.3-0.3l-0.1,0.1c0.1-0.1,0.2-0.1,0.2-0.2l-0.1,0.1c0.2-0.2,0.4-0.4,0.6-0.7c0-0.1,0.1-0.1,0.1-0.2l-0.1,0.2
						c0.7-0.9,1.1-2,1.1-3.2C-59.6-217.6-62-220-64.9-220z"/>
				</g>
			</g>
			<path id="Clip-45" class="st1" d="M355.7,178.9c19.6,0,33.7,14.6,33.7,32.7v0.2c0,18.1-14.3,32.8-33.9,32.8
				c-19.6,0-33.7-14.6-33.7-32.7v-0.2C321.9,193.7,336.1,178.9,355.7,178.9z M231.3,179.1c9.2,0,17.1,2.9,23.6,8.1l-7.3,10.5
				c-5.6-3.9-11.2-6.3-16.5-6.3s-8.2,2.4-8.2,5.5v0.2c0,4.2,2.7,5.5,13.7,8.3c12.9,3.4,20.1,8,20.1,19v0.2
				c0,12.6-9.6,19.7-23.3,19.7c-9.6,0-19.3-3.4-26.9-10.2l8.2-9.9c5.7,4.7,11.7,7.7,18.9,7.7c5.7,0,9.2-2.3,9.2-6v-0.2
				c0-3.5-2.2-5.3-12.8-8.1c-12.8-3.3-21-6.8-21-19.4v-0.2C209.1,186.8,218.4,179.1,231.3,179.1z M506.4,180v41.6
				c0,15.4-9.1,22.9-22.5,22.9c-9.9,0-16.4-4.4-20.8-9.5l8.8-9.8c3.6,4,7.2,6.4,11.6,6.4c5.3,0,8.5-3.2,8.5-10.5v-26.7l-20.9,0V180
				H506.4z M316.1,180v12.9h-19.3v50.7h-14v-50.7h-19.3V180H316.1z M430.4,180c15,0,24,7.9,24,21v0.2c0,10.3-5.5,16.7-13.6,19.7
				l15.5,22.7h-16.3l-13.6-20.3h-11v20.3h-14V180H430.4z M355.6,191.9c-11.3,0-19.1,8.9-19.1,19.7v0.2c0,10.9,8,19.9,19.3,19.9
				s19.1-8.9,19.1-19.7v-0.2C374.8,200.9,366.8,191.9,355.6,191.9z M429.2,192.7h-13.8v18.2h14.1c6.8,0,10.7-3.6,10.7-9v-0.2
				C440.1,195.8,435.9,192.7,429.2,192.7z"/>
		</g>
	</g>
</g>
</svg>
